<?xml version="1.0" encoding="utf-8"?>
<!-- Generator: Adobe Illustrator 23.0.1, SVG Export Plug-In . SVG Version: 6.00 Build 0)  -->
<svg version="1.1" id="Layer_1" xmlns="http://www.w3.org/2000/svg" xmlns:xlink="http://www.w3.org/1999/xlink" x="0px" y="0px"
	 viewBox="0 0 1000 1000" style="enable-background:new 0 0 1000 1000;" xml:space="preserve">
<style type="text/css">
	.st0{fill:#ff55f6;}
	.st1{fill:#FFFFFF;}
</style>
<g>
	<!-- <circle class="st0" cx="500" cy="500" r="499.2"/> -->
	<path class="st1" d="M712.1,673.1c-26.5,35.9-60.8,73.3-106.1,101.4c-43.7,28.1-93.6,49.9-152.9,49.9c-54.6,0-99.8-28.1-124.8-51.5
		c-37.4-35.9-57.7-87.4-64-135.7c-18.7-149.7,73.3-347.9,215.3-433.6c32.8-20.3,68.6-29.6,103-29.6c68.6,0,120.1,48.4,126.3,107.6
		c6.2,53-14,98.3-73.3,127.9c-29.6,15.6-45.2,14-49.9,7.8c-3.1-4.7-1.6-12.5,4.7-17.2c54.6-45.2,56.2-82.7,49.9-135.7
		c-4.7-34.3-26.5-56.2-51.5-56.2c-107.6,0-263.6,241.8-241.8,416.5C354.9,693.4,397,773,484.4,773c28.1,0,59.3-7.8,85.8-21.8
		c60.8-31.2,87.4-53,123.2-103c4.7-6.2,9.4-14,14-20.3c3.1-6.2,9.4-7.8,14-7.8s10.9,4.7,10.9,12.5c0,4.7-1.6,14-7.8,21.8
		C723.1,657.5,718.4,666.9,712.1,673.1L712.1,673.1z"/>
</g>
</svg>
